  <svg
    width="28"
    height="28"
    viewBox="0 0 28 28"
    fill="none"
    xmlns="http://www.w3.org/2000/svg"
  >
    <path
      d="M13.9998 2.3335V9.3335C13.9998 10.6222 15.0445 11.6668 16.3332 11.6668H23.3332V23.3335C23.3332 24.6222 22.2885 25.6668 20.9998 25.6668H13.0553C14.3629 24.3043 15.1665 22.4544 15.1665 20.4168C15.1665 16.2287 11.7713 12.8335 7.58317 12.8335C6.54962 12.8335 5.56436 13.0403 4.6665 13.4147V4.66683C4.6665 3.37817 5.71117 2.3335 6.99984 2.3335H13.9998ZM15.7498 2.91683V9.3335C15.7498 9.65566 16.011 9.91683 16.3332 9.91683H22.7498L15.7498 2.91683Z"
      fill="gray"
      fillOpacity="0.7"
    />
    <path
      d="M13.9998 20.4168C13.9998 23.9607 11.127 26.8335 7.58317 26.8335C4.03934 26.8335 1.1665 23.9607 1.1665 20.4168C1.1665 16.873 4.03934 14.0002 7.58317 14.0002C11.127 14.0002 13.9998 16.873 13.9998 20.4168ZM11.4957 17.671C11.2678 17.4432 10.8985 17.4432 10.6707 17.671L6.4165 21.9252L4.49565 20.0043C4.26784 19.7765 3.8985 19.7765 3.67069 20.0043C3.44289 20.2322 3.44289 20.6015 3.67069 20.8293L6.00403 23.1626C6.23183 23.3904 6.60118 23.3904 6.82898 23.1626L11.4957 18.496C11.7235 18.2682 11.7235 17.8988 11.4957 17.671Z"
      fill="gray"
      fillOpacity="0.7"
    />
  </svg>