 <svg
    width="28"
    height="28"
    viewBox="0 0 28 28"
    fill="none"
    xmlns="http://www.w3.org/2000/svg"
  >
    <path
      d="M21.5832 23.3335C21.5832 23.6543 21.3218 23.9168 20.9998 23.9168H14.3123C13.9772 24.5597 13.5527 25.1485 13.0553 25.6668H20.9998C22.2878 25.6668 23.3332 24.6215 23.3332 23.3335V11.4662C23.3332 10.8478 23.087 10.254 22.6495 9.8165L15.849 3.01716C15.8316 2.99972 15.8118 2.98459 15.7922 2.96956C15.7777 2.95845 15.7632 2.94739 15.7498 2.9355C15.667 2.86083 15.5853 2.78733 15.4943 2.7255C15.4649 2.70559 15.4326 2.68988 15.4004 2.67425C15.3817 2.66513 15.363 2.65604 15.345 2.64616C15.3255 2.63519 15.3061 2.62396 15.2867 2.61271C15.2234 2.57613 15.1599 2.53938 15.093 2.51083C14.8632 2.41516 14.6158 2.36733 14.365 2.34983C14.342 2.34836 14.3192 2.34525 14.2964 2.34214C14.2648 2.33783 14.233 2.3335 14.2005 2.3335H6.99984C5.71184 2.3335 4.6665 3.37883 4.6665 4.66683V13.4147C5.21971 13.184 5.80609 13.0169 6.4165 12.9227V4.66683C6.4165 4.346 6.67784 4.0835 6.99984 4.0835H13.9998V9.3335C13.9998 10.6215 15.0452 11.6668 16.3332 11.6668H21.5832V23.3335ZM15.7498 5.39133L20.2742 9.91683H16.3332C16.0112 9.91683 15.7498 9.65433 15.7498 9.3335V5.39133Z"
      fill="gray"
      fillOpacity="0.25"
    />
    <path
      d="M7.58317 14.0002C11.127 14.0002 13.9998 16.873 13.9998 20.4168C13.9998 23.9607 11.127 26.8335 7.58317 26.8335C4.03934 26.8335 1.1665 23.9607 1.1665 20.4168C1.1665 16.873 4.03934 14.0002 7.58317 14.0002ZM7.58317 16.3326L7.47832 16.342C7.24021 16.3852 7.05245 16.573 7.00924 16.8111L6.99984 16.9159L6.99943 19.8326L4.08043 19.8335L3.97557 19.8429C3.73747 19.8861 3.54971 20.0739 3.50649 20.312L3.4971 20.4168L3.50649 20.5217C3.54971 20.7598 3.73747 20.9475 3.97557 20.9908L4.08043 21.0002L7.0006 20.9993L7.00113 23.9209L7.01053 24.0257C7.05375 24.2639 7.2415 24.4516 7.47961 24.4948L7.58446 24.5042L7.68932 24.4948C7.92743 24.4516 8.11518 24.2639 8.1584 24.0257L8.1678 23.9209L8.16726 20.9993L11.0885 21.0002L11.1934 20.9908C11.4315 20.9475 11.6192 20.7598 11.6624 20.5217L11.6718 20.4168L11.6624 20.312C11.6192 20.0739 11.4315 19.8861 11.1934 19.8429L11.0885 19.8335L8.16609 19.8326L8.1665 16.9159L8.1571 16.8111C8.11389 16.573 7.92614 16.3852 7.68803 16.342L7.58317 16.3326Z"
      fill="gray"
      fillOpacity="0.25"
    />
  </svg>